<svg width="204" height="33" viewBox="0 0 204 33" fill="none" xmlns="http://www.w3.org/2000/svg">
<path d="M0.329412 23.9576L2.56941 20.96C3.57961 21.6188 4.5349 22.1129 5.43529 22.4424C6.33569 22.7498 7.23608 22.9035 8.13647 22.9035C9.14667 22.9035 9.94824 22.7388 10.5412 22.4094C11.1561 22.08 11.4635 21.6408 11.4635 21.0918C11.4635 20.6525 11.2878 20.3012 10.9365 20.0376C10.6071 19.7741 10.069 19.5875 9.32235 19.4776L6.02824 18.9835C4.33726 18.72 3.04157 18.171 2.14118 17.3365C1.26275 16.502 0.823529 15.3929 0.823529 14.0094C0.823529 12.3624 1.47137 11.0447 2.76706 10.0565C4.06275 9.06823 5.79765 8.57412 7.97177 8.57412C9.22353 8.57412 10.4424 8.76078 11.6282 9.13412C12.8141 9.48549 13.9451 10.0125 15.0212 10.7153L12.8471 13.6141C11.9027 13.0651 11.0024 12.6588 10.1459 12.3953C9.28941 12.1098 8.42196 11.9671 7.54353 11.9671C6.73098 11.9671 6.07216 12.1208 5.56706 12.4282C5.08392 12.7357 4.84235 13.142 4.84235 13.6471C4.84235 14.1082 5.01804 14.4706 5.36941 14.7341C5.74275 14.9757 6.34667 15.1514 7.18118 15.2612L10.4753 15.7553C12.1443 15.9969 13.429 16.5459 14.3294 17.4024C15.2518 18.2588 15.7129 19.3459 15.7129 20.6635C15.7129 21.4761 15.5153 22.2337 15.12 22.9365C14.7467 23.6173 14.2306 24.2102 13.5718 24.7153C12.9129 25.2204 12.1224 25.6157 11.2 25.9012C10.2776 26.1867 9.27843 26.3294 8.20235 26.3294C6.64314 26.3294 5.18275 26.1318 3.82118 25.7365C2.45961 25.3192 1.29569 24.7263 0.329412 23.9576ZM17.4987 17.7318C17.4987 16.5459 17.7183 15.4259 18.1575 14.3718C18.5968 13.3176 19.1897 12.4063 19.9364 11.6376C20.705 10.869 21.6054 10.2651 22.6375 9.82588C23.6697 9.38667 24.7677 9.16706 25.9317 9.16706C27.0956 9.16706 28.1826 9.38667 29.1928 9.82588C30.225 10.2651 31.1144 10.869 31.8611 11.6376C32.6297 12.4063 33.2336 13.3176 33.6728 14.3718C34.112 15.4259 34.3317 16.5459 34.3317 17.7318C34.3317 18.9396 34.112 20.0706 33.6728 21.1247C33.2336 22.1788 32.6297 23.0902 31.8611 23.8588C31.1144 24.6275 30.225 25.2314 29.1928 25.6706C28.1826 26.1098 27.0956 26.3294 25.9317 26.3294C24.7677 26.3294 23.6697 26.1098 22.6375 25.6706C21.6054 25.2314 20.705 24.6275 19.9364 23.8588C19.1897 23.0902 18.5968 22.1788 18.1575 21.1247C17.7183 20.0706 17.4987 18.9396 17.4987 17.7318ZM25.9317 24.1553C26.7662 24.1553 27.5458 23.9906 28.2705 23.6612C29.0171 23.3318 29.654 22.8816 30.1811 22.3106C30.7301 21.7176 31.1583 21.0369 31.4658 20.2682C31.7732 19.4776 31.9269 18.6322 31.9269 17.7318C31.9269 16.8314 31.7732 15.9969 31.4658 15.2282C31.1583 14.4376 30.7301 13.7569 30.1811 13.1859C29.654 12.6149 29.0171 12.1647 28.2705 11.8353C27.5458 11.5059 26.7662 11.3412 25.9317 11.3412C25.0971 11.3412 24.3066 11.5059 23.5599 11.8353C22.8352 12.1647 22.1983 12.6149 21.6493 13.1859C21.1222 13.7569 20.694 14.4376 20.3646 15.2282C20.0571 15.9969 19.9034 16.8314 19.9034 17.7318C19.9034 18.6322 20.0571 19.4776 20.3646 20.2682C20.672 21.0369 21.0893 21.7176 21.6164 22.3106C22.1654 22.8816 22.8132 23.3318 23.5599 23.6612C24.3066 23.9906 25.0971 24.1553 25.9317 24.1553ZM36.9932 17.7318C36.9932 16.5459 37.2128 15.4259 37.652 14.3718C38.0912 13.3176 38.6842 12.4063 39.4308 11.6376C40.1995 10.869 41.0999 10.2651 42.132 9.82588C43.1642 9.38667 44.2622 9.16706 45.4261 9.16706C46.5901 9.16706 47.6771 9.38667 48.6873 9.82588C49.7195 10.2651 50.6089 10.869 51.3556 11.6376C52.1242 12.4063 52.7281 13.3176 53.1673 14.3718C53.6065 15.4259 53.8261 16.5459 53.8261 17.7318C53.8261 18.9396 53.6065 20.0706 53.1673 21.1247C52.7281 22.1788 52.1242 23.0902 51.3556 23.8588C50.6089 24.6275 49.7195 25.2314 48.6873 25.6706C47.6771 26.1098 46.5901 26.3294 45.4261 26.3294C44.2622 26.3294 43.1642 26.1098 42.132 25.6706C41.0999 25.2314 40.1995 24.6275 39.4308 23.8588C38.6842 23.0902 38.0912 22.1788 37.652 21.1247C37.2128 20.0706 36.9932 18.9396 36.9932 17.7318ZM45.4261 24.1553C46.2607 24.1553 47.0403 23.9906 47.765 23.6612C48.5116 23.3318 49.1485 22.8816 49.6756 22.3106C50.2246 21.7176 50.6528 21.0369 50.9603 20.2682C51.2677 19.4776 51.4214 18.6322 51.4214 17.7318C51.4214 16.8314 51.2677 15.9969 50.9603 15.2282C50.6528 14.4376 50.2246 13.7569 49.6756 13.1859C49.1485 12.6149 48.5116 12.1647 47.765 11.8353C47.0403 11.5059 46.2607 11.3412 45.4261 11.3412C44.5916 11.3412 43.801 11.5059 43.0544 11.8353C42.3297 12.1647 41.6928 12.6149 41.1438 13.1859C40.6167 13.7569 40.1885 14.4376 39.8591 15.2282C39.5516 15.9969 39.3979 16.8314 39.3979 17.7318C39.3979 18.6322 39.5516 19.4776 39.8591 20.2682C40.1665 21.0369 40.5838 21.7176 41.1108 22.3106C41.6599 22.8816 42.3077 23.3318 43.0544 23.6612C43.801 23.9906 44.5916 24.1553 45.4261 24.1553ZM57.2132 26V9.49647H59.6508V11.8353C60.1339 10.9788 60.7708 10.32 61.5614 9.85882C62.352 9.37569 63.2524 9.13412 64.2626 9.13412C64.57 9.13412 64.8445 9.15608 65.0861 9.2C65.3277 9.22196 65.5692 9.27686 65.8108 9.36471V11.6047C65.5253 11.5169 65.2398 11.451 64.9543 11.4071C64.6689 11.3412 64.3834 11.3082 64.0979 11.3082C63.0877 11.3082 62.1983 11.6047 61.4296 12.1976C60.661 12.7686 60.0681 13.6031 59.6508 14.7012V26H57.2132ZM72.9372 26.2965C71.1364 26.2965 69.665 25.8353 68.5231 24.9129C67.4031 23.9906 66.8431 22.7937 66.8431 21.3224C66.8431 19.7851 67.436 18.5663 68.6219 17.6659C69.8078 16.7435 71.4109 16.2824 73.4313 16.2824C74.3097 16.2824 75.1552 16.3812 75.9678 16.5788C76.8023 16.7765 77.5709 17.051 78.2736 17.4024V15.2282C78.2736 13.9106 77.9003 12.9224 77.1536 12.2635C76.407 11.5827 75.3199 11.2424 73.8925 11.2424C73.0799 11.2424 72.2564 11.3631 71.4219 11.6047C70.6093 11.8243 69.7089 12.1867 68.7207 12.6918L67.7983 10.8141C68.9842 10.2431 70.0823 9.82588 71.0925 9.56235C72.1027 9.29882 73.1129 9.16706 74.1231 9.16706C76.2093 9.16706 77.8125 9.66117 78.9325 10.6494C80.0744 11.6376 80.6454 13.0541 80.6454 14.8988V26H78.2736V24.3859C77.527 25.0227 76.7034 25.5059 75.8031 25.8353C74.9246 26.1427 73.9693 26.2965 72.9372 26.2965ZM69.1819 21.2565C69.1819 22.1788 69.5662 22.9365 70.3348 23.5294C71.1254 24.1004 72.1356 24.3859 73.3654 24.3859C74.3536 24.3859 75.254 24.2322 76.0666 23.9247C76.8791 23.6173 77.6148 23.1341 78.2736 22.4753V19.3788C77.5929 18.9176 76.8572 18.5882 76.0666 18.3906C75.298 18.171 74.4415 18.0612 73.4972 18.0612C72.1795 18.0612 71.1254 18.3576 70.3348 18.9506C69.5662 19.5216 69.1819 20.2902 69.1819 21.2565ZM85.9366 6.33412C85.4974 6.33412 85.1131 6.16941 84.7836 5.84C84.4542 5.51059 84.2895 5.12627 84.2895 4.68706C84.2895 4.22588 84.4542 3.84157 84.7836 3.53412C85.1131 3.2047 85.4974 3.04 85.9366 3.04C86.3978 3.04 86.7821 3.2047 87.0895 3.53412C87.4189 3.84157 87.5836 4.22588 87.5836 4.68706C87.5836 5.12627 87.4189 5.51059 87.0895 5.84C86.7821 6.16941 86.3978 6.33412 85.9366 6.33412ZM82.906 32.8518C82.5985 32.8518 82.3131 32.8298 82.0495 32.7859C81.786 32.742 81.5664 32.698 81.3907 32.6541V30.6118C81.5883 30.6557 81.786 30.6886 81.9836 30.7106C82.1593 30.7325 82.368 30.7435 82.6095 30.7435C83.3562 30.7435 83.8942 30.5678 84.2236 30.2165C84.5531 29.8651 84.7178 29.2941 84.7178 28.5035V9.49647H87.1554V28.7012C87.1554 30.0188 86.7821 31.04 86.0354 31.7647C85.2887 32.4894 84.2456 32.8518 82.906 32.8518ZM89.5665 23.9576L91.8065 20.96C92.8167 21.6188 93.772 22.1129 94.6724 22.4424C95.5728 22.7498 96.4732 22.9035 97.3736 22.9035C98.3838 22.9035 99.1854 22.7388 99.7783 22.4094C100.393 22.08 100.701 21.6408 100.701 21.0918C100.701 20.6525 100.525 20.3012 100.174 20.0376C99.8442 19.7741 99.3062 19.5875 98.5595 19.4776L95.2654 18.9835C93.5744 18.72 92.2787 18.171 91.3783 17.3365C90.4999 16.502 90.0607 15.3929 90.0607 14.0094C90.0607 12.3624 90.7085 11.0447 92.0042 10.0565C93.2999 9.06823 95.0348 8.57412 97.2089 8.57412C98.4607 8.57412 99.6795 8.76078 100.865 9.13412C102.051 9.48549 103.182 10.0125 104.258 10.7153L102.084 13.6141C101.14 13.0651 100.239 12.6588 99.383 12.3953C98.5265 12.1098 97.6591 11.9671 96.7807 11.9671C95.9681 11.9671 95.3093 12.1208 94.8042 12.4282C94.3211 12.7357 94.0795 13.142 94.0795 13.6471C94.0795 14.1082 94.2552 14.4706 94.6065 14.7341C94.9799 14.9757 95.5838 15.1514 96.4183 15.2612L99.7124 15.7553C101.381 15.9969 102.666 16.5459 103.567 17.4024C104.489 18.2588 104.95 19.3459 104.95 20.6635C104.95 21.4761 104.752 22.2337 104.357 22.9365C103.984 23.6173 103.468 24.2102 102.809 24.7153C102.15 25.2204 101.359 25.6157 100.437 25.9012C99.5148 26.1867 98.5156 26.3294 97.4395 26.3294C95.8803 26.3294 94.4199 26.1318 93.0583 25.7365C91.6967 25.3192 90.5328 24.7263 89.5665 23.9576ZM108.712 6.33412C108.273 6.33412 107.889 6.16941 107.559 5.84C107.23 5.51059 107.065 5.12627 107.065 4.68706C107.065 4.22588 107.23 3.84157 107.559 3.53412C107.889 3.2047 108.273 3.04 108.712 3.04C109.173 3.04 109.558 3.2047 109.865 3.53412C110.195 3.84157 110.359 4.22588 110.359 4.68706C110.359 5.12627 110.195 5.51059 109.865 5.84C109.558 6.16941 109.173 6.33412 108.712 6.33412ZM109.931 9.49647V26H107.493V9.49647H109.931ZM114.088 26V9.49647H116.526V11.44C117.163 10.6933 117.92 10.1333 118.799 9.76C119.677 9.3647 120.654 9.16706 121.731 9.16706C123.597 9.16706 125.123 9.76 126.309 10.9459C127.495 12.1318 128.088 13.669 128.088 15.5576V26H125.683V16.0518C125.683 14.6024 125.266 13.4494 124.432 12.5929C123.597 11.7365 122.477 11.3082 121.072 11.3082C120.083 11.3082 119.194 11.5278 118.403 11.9671C117.635 12.4063 117.009 13.0322 116.526 13.8447V26H114.088ZM139.645 26.1318C138.503 26.1318 137.427 25.9122 136.417 25.4729C135.428 25.0337 134.561 24.4408 133.814 23.6941C133.068 22.9255 132.475 22.0251 132.035 20.9929C131.618 19.9608 131.41 18.8518 131.41 17.6659C131.41 16.48 131.618 15.371 132.035 14.3388C132.475 13.3067 133.068 12.4173 133.814 11.6706C134.561 10.902 135.439 10.298 136.45 9.85882C137.46 9.41961 138.547 9.2 139.711 9.2C140.655 9.2 141.566 9.37568 142.445 9.72706C143.345 10.0565 144.169 10.5286 144.915 11.1435V9.49647H147.32V26.3953C147.32 28.5035 146.705 30.1176 145.475 31.2376C144.246 32.3796 142.489 32.9506 140.205 32.9506C139.063 32.9506 137.932 32.7969 136.812 32.4894C135.692 32.2039 134.671 31.7867 133.748 31.2376L134.803 29.3271C135.791 29.8541 136.702 30.2384 137.537 30.48C138.393 30.7216 139.25 30.8424 140.106 30.8424C141.665 30.8424 142.851 30.469 143.664 29.7224C144.476 28.9757 144.883 27.8776 144.883 26.4282V24.2212C144.136 24.8361 143.312 25.3082 142.412 25.6376C141.533 25.9671 140.611 26.1318 139.645 26.1318ZM133.814 17.6659C133.814 18.5443 133.968 19.3788 134.275 20.1694C134.583 20.938 135 21.6078 135.527 22.1788C136.076 22.7278 136.724 23.1671 137.471 23.4965C138.217 23.8259 139.008 23.9906 139.843 23.9906C140.897 23.9906 141.863 23.7929 142.741 23.3976C143.62 23.0024 144.333 22.4424 144.883 21.7176V13.6141C144.333 12.9114 143.609 12.3624 142.708 11.9671C141.83 11.5718 140.875 11.3741 139.843 11.3741C138.986 11.3741 138.184 11.5388 137.438 11.8682C136.713 12.1757 136.076 12.6149 135.527 13.1859C135 13.7569 134.583 14.4267 134.275 15.1953C133.968 15.9639 133.814 16.7875 133.814 17.6659ZM151.469 26V2.94117L153.906 2.38118V11.44C154.543 10.6933 155.301 10.1333 156.179 9.76C157.058 9.3647 158.035 9.16706 159.111 9.16706C160.978 9.16706 162.504 9.76 163.69 10.9459C164.876 12.1318 165.469 13.669 165.469 15.5576V26H163.064V16.0518C163.064 14.6024 162.647 13.4494 161.812 12.5929C160.978 11.7365 159.858 11.3082 158.452 11.3082C157.464 11.3082 156.575 11.5278 155.784 11.9671C155.015 12.4063 154.389 13.0322 153.906 13.8447V26H151.469Z" fill="#FFF6CD"/>
<path d="M175.905 28.4706V25.3082C174.39 25.1765 172.974 24.8031 171.656 24.1882C170.338 23.5514 169.185 22.6949 168.197 21.6188L169.712 20.0047C170.569 20.9271 171.524 21.6737 172.578 22.2447C173.632 22.8157 174.741 23.178 175.905 23.3318V15.2282L174.752 14.9976C172.556 14.5145 170.997 13.8557 170.075 13.0212C169.152 12.1647 168.691 10.9569 168.691 9.39765C168.691 7.66274 169.361 6.25725 170.701 5.18117C172.062 4.08314 173.797 3.53412 175.905 3.53412V0.997644H177.585V3.6C178.837 3.75372 180.078 4.07216 181.308 4.55529C182.538 5.01647 183.679 5.63137 184.734 6.4L183.482 8.2447C182.472 7.54196 181.472 6.98196 180.484 6.5647C179.496 6.14745 178.53 5.86196 177.585 5.70823V13.3176L178.705 13.5482C181.055 14.0753 182.713 14.7671 183.679 15.6235C184.668 16.48 185.162 17.6878 185.162 19.2471C185.162 20.982 184.448 22.4204 183.021 23.5624C181.615 24.6824 179.803 25.2863 177.585 25.3741V28.4706H175.905ZM175.378 12.8894L175.905 12.9882V5.57647C174.434 5.59843 173.237 5.93882 172.315 6.59765C171.414 7.25647 170.964 8.12392 170.964 9.2C170.964 10.2322 171.283 11.0227 171.919 11.5718C172.556 12.0988 173.709 12.538 175.378 12.8894ZM178.079 15.6565L177.585 15.5576V23.3976C179.101 23.3098 180.352 22.8925 181.341 22.1459C182.329 21.3992 182.823 20.4659 182.823 19.3459C182.823 18.3357 182.483 17.5671 181.802 17.04C181.143 16.491 179.902 16.0298 178.079 15.6565ZM194.727 12L197.363 13.3176C197.89 13.5812 198.318 13.7678 198.647 13.8776C198.977 13.9875 199.284 14.0424 199.57 14.0424C200.251 14.0424 200.789 13.8008 201.184 13.3176C201.601 12.8125 201.887 12.0549 202.04 11.0447L203.885 11.2753C203.709 12.7906 203.248 13.9765 202.502 14.8329C201.755 15.6674 200.822 16.0847 199.702 16.0847C199.284 16.0847 198.823 16.0188 198.318 15.8871C197.813 15.7333 197.253 15.4918 196.638 15.1624L194.003 13.8447C193.432 13.5592 192.992 13.3616 192.685 13.2518C192.378 13.142 192.081 13.0871 191.796 13.0871C191.115 13.0871 190.577 13.3396 190.182 13.8447C189.786 14.3278 189.512 15.0745 189.358 16.0847L187.48 15.8541C187.678 14.3388 188.139 13.1639 188.864 12.3294C189.611 11.4729 190.544 11.0447 191.664 11.0447C192.103 11.0447 192.564 11.1216 193.047 11.2753C193.552 11.4071 194.112 11.6486 194.727 12Z" fill="#DBD3AF"/>
</svg>
